<?xml version="1.0" encoding="utf-8"?>
<!-- Generator: Adobe Illustrator 12.0.0, SVG Export Plug-In . SVG Version: 6.00 Build 51448)  -->
<!DOCTYPE svg PUBLIC "-//W3C//DTD SVG 1.1//EN" "http://www.w3.org/Graphics/SVG/1.1/DTD/svg11.dtd" [
	<!ENTITY ns_svg "http://www.w3.org/2000/svg">
	<!ENTITY ns_xlink "http://www.w3.org/1999/xlink">
]>
<svg  version="1.1" id="layer_1" xmlns="&ns_svg;" xmlns:xlink="&ns_xlink;" width="172.462" height="64.705"
	 viewBox="0 0 172.462 64.705" overflow="visible" enable-background="new 0 0 172.462 64.705" xml:space="preserve">
<path fill="#273A96" d="M81.492,32.492c1.9,0,2.89-0.5,2.89-2.61c0-5.21-3.77-10.16-9.64-10.16c-6.1,0-10.41,5.07-10.41,10.81
	c0,6.02,4,10.81,10.41,10.81c4.5,0,9.34-1.91,9.34-4.83c0-1.53-1.15-2.57-2.48-2.57c-1.37,0-3.17,1.88-6.1,1.88
	c-3.81,0-4.77-2.07-4.77-3.33H81.492z M70.732,28.393c0-1.34,1.53-3.6,3.85-3.6c2.33,0,3.85,2.26,3.85,3.6H70.732z"/>
<path fill="#273A96" d="M101.922,32.492c1.91,0,2.9-0.5,2.9-2.61c0-5.21-3.77-10.16-9.65-10.16c-6.1,0-10.4,5.07-10.4,10.81
	c0,6.02,4,10.81,10.4,10.81c4.5,0,9.34-1.91,9.34-4.83c0-1.53-1.14-2.57-2.47-2.57c-1.38,0-3.17,1.88-6.1,1.88
	c-3.82,0-4.77-2.07-4.77-3.33H101.922z M91.172,28.393c0-1.34,1.52-3.6,3.85-3.6s3.85,2.26,3.85,3.6H91.172z"/>
<path fill="#273A96" d="M106.192,14.322c0-1.72,1.23-3.1,2.98-3.1s2.97,1.38,2.97,3.1v12.73l4.84-4.87
	c1.03-1.04,1.91-2.07,3.36-2.07c1.75,0,2.9,1.3,2.9,2.76c0,1.07-0.69,1.76-2.1,3.14l-3.2,3.18l4.99,6.36
	c0.61,0.77,1.41,1.77,1.41,2.65c0,1.15-0.87,2.76-2.93,2.76c-1.38,0-1.99-0.42-3.24-2.03l-5.95-7.82h-0.08v6.75
	c0,1.72-1.22,3.1-2.97,3.1s-2.98-1.38-2.98-3.1V14.322z"/>
<path fill="#273A96" d="M124.652,14.322c0-1.72,1.22-3.1,2.98-3.1c1.75,0,2.97,1.38,2.97,3.1v23.54c0,1.72-1.22,3.1-2.97,3.1
	c-1.76,0-2.98-1.38-2.98-3.1V14.322z"/>
<path fill="#273A96" d="M141.813,19.723c-6.03,0-10.03,4.8-10.03,10.81c0,6.02,4,10.81,10.03,10.81c6.02,0,10.02-4.79,10.02-10.81
	C151.833,24.522,147.833,19.723,141.813,19.723z M141.813,25.473c2.63,0,4.08,2.3,4.08,5.06c0,2.76-1.45,5.06-4.08,5.06
	s-4.08-2.3-4.08-5.06C137.732,27.772,139.183,25.473,141.813,25.473z"/>
<path fill="#273A96" d="M172.462,23.212c0-1.72-1.22-3.1-2.97-3.1c-1.45,0-2.36,1-2.79,1.91c-1.33-1.64-2.85-2.3-5.11-2.3
	c-5.18,0-9.18,4.8-9.18,10.81c0,5.41,2.86,10.43,8.62,10.43c1.97,0,4.11-0.46,5.41-2.3h0.07c0,3.33-1.25,5.29-4.95,5.29
	c-3.47,0-4.58-1.77-6.29-1.77c-1.18,0-2.48,1.27-2.48,2.61c0,3.26,5.79,4.45,8.88,4.45c5.83,0,10.79-2.88,10.79-10.5V23.212z
	 M166.512,30.532c0,2.92-1.45,5.14-4.07,5.14c-2.64,0-4.09-2.22-4.09-5.14c0-2.76,1.45-5.06,4.09-5.06
	C165.063,25.473,166.512,27.772,166.512,30.532z"/>
<g>
	<path fill="#FFFFFF" stroke="#000000" stroke-width="2.3046" stroke-linecap="round" stroke-linejoin="round" d="M33.842,2.083
		c0,0-24.81,15.48-32.69,24.73c0,0,11.59,13.86,16.92,20.56c5.34,6.7,9.51,12.48,9.51,12.48l26.89-12.71
		C54.472,47.143,41.492,8.092,33.842,2.083z"/>
	<path fill="#FFFFFF" stroke="#000000" stroke-width="2.3046" stroke-linecap="round" stroke-linejoin="round" d="M49.603,1.152
		c0,0-19.71,4.39-27.35,7.86c-7.65,3.47-15.07,7.4-15.07,7.4s8.81,17.1,12.05,27.03c3.25,9.94,7.19,20.11,7.19,20.11
		s29.21-9.48,38.48-11.09C64.902,52.462,53.772,9.703,49.603,1.152z"/>
	<path fill="#273A96" d="M47.752,10.862c0,0-21.1,4.39-32.46,10.63l11.59,34.2c0,0,28.75-7.39,31.76-9.01
		C58.643,46.683,53.083,18.953,47.752,10.862z"/>
	<path fill="#FFFFFF" d="M48.992,27.413c2.56-0.49,4.21,0.7,4.81,3.75c1.69,8.69-2.75,16.54-11.79,18.29
		c-10.23,1.99-17.47-4.55-19.28-13.83c-1.92-9.83,3.5-18.25,12.68-20.03c6.12-1.19,13.1,0.11,13.98,4.66
		c0.36,1.82-0.67,3.34-2.73,3.74c-2.69,0.52-4.62-2.6-9.6-1.64c-5.16,1-7.49,6.09-6.39,11.73c0.98,5.01,4.44,9.63,10.19,8.52
		c3.88-0.76,6.09-3.79,5.72-7.64l-4.25,0.83c-2.33,0.45-3.96-0.65-4.36-2.7c-0.42-2.14,0.7-3.68,3.03-4.13L48.992,27.413z"/>
	<path fill="#BABFC0" stroke="#000000" stroke-width="2.3046" stroke-linecap="round" stroke-linejoin="round" d="M59.702,33.242
		c0.74-0.53,1.51-1.22,2.12-2.09c1.75-2.44,0.92-5.19,0.92-5.19c-0.66-2.06-3.37-3.41-5.43-2.75l-17.26,5.56
		c-2.06,0.66-3.19,2.87-2.52,4.92s2.87,3.18,4.93,2.51l8.9-2.87c0.34-0.1,0.16-0.47,0.16-0.47l-0.51-1.56
		c-0.15-0.45-0.41-0.3-0.41-0.3l-8.76,2.82c-0.76,0.25-1.58-0.17-1.82-0.93c-0.25-0.76,0.17-1.58,0.93-1.83l16.45-5.31
		c0.76-0.25,2.29,0.17,2.54,0.93c0,0,1.02,1.85-1.03,3.57L59.702,33.242z"/>
</g>
</svg>
